<?xml version="1.0" encoding="UTF-8"?>
<svg xmlns="http://www.w3.org/2000/svg" xmlns:xlink="http://www.w3.org/1999/xlink" width="150px" height="150px" viewBox="0 0 150 150" version="1.1">
<g id="surface1">
<path style=" stroke:none;fill-rule:nonzero;fill:rgb(9.411765%,46.666667%,94.901961%);fill-opacity:1;" d="M 150 75 C 150 33.578125 116.421875 0 75 0 C 33.578125 0 0 33.578125 0 75 C 0 112.433594 27.425781 143.460938 63.28125 149.089844 L 63.28125 96.679688 L 44.238281 96.679688 L 44.238281 75 L 63.28125 75 L 63.28125 58.476562 C 63.28125 39.679688 74.476562 29.296875 91.609375 29.296875 C 99.816406 29.296875 108.398438 30.761719 108.398438 30.761719 L 108.398438 49.21875 L 98.941406 49.21875 C 89.625 49.21875 86.71875 55 86.71875 60.929688 L 86.71875 75 L 107.519531 75 L 104.195312 96.679688 L 86.71875 96.679688 L 86.71875 149.089844 C 122.574219 143.460938 150 112.433594 150 75 "/>
<path style=" stroke:none;fill-rule:nonzero;fill:rgb(100%,100%,100%);fill-opacity:1;" d="M 104.195312 96.679688 L 107.519531 75 L 86.71875 75 L 86.71875 60.929688 C 86.71875 55 89.625 49.21875 98.941406 49.21875 L 108.398438 49.21875 L 108.398438 30.761719 C 108.398438 30.761719 99.816406 29.296875 91.609375 29.296875 C 74.476562 29.296875 63.28125 39.679688 63.28125 58.476562 L 63.28125 75 L 44.238281 75 L 44.238281 96.679688 L 63.28125 96.679688 L 63.28125 149.089844 C 67.15625 149.695312 71.074219 150 75 150 C 78.988281 150 82.898438 149.6875 86.71875 149.089844 L 86.71875 96.679688 Z M 104.195312 96.679688 "/>
</g>
</svg>
