<?xml version="1.0" encoding="UTF-8"?>
<svg xmlns="http://www.w3.org/2000/svg" xmlns:xlink="http://www.w3.org/1999/xlink" width="150px" height="150px" viewBox="0 0 150 150" version="1.1">
<defs>
<linearGradient id="linear0" gradientUnits="userSpaceOnUse" x1="328.269989" y1="508.049988" x2="183.729996" y2="3.95" gradientTransform="matrix(0.292969,0,0,0.292969,0,0)">
<stop offset="0" style="stop-color:rgb(100%,85.882353%,45.098039%);stop-opacity:1;"/>
<stop offset="0.08" style="stop-color:rgb(99.215686%,67.843137%,30.588235%);stop-opacity:1;"/>
<stop offset="0.15" style="stop-color:rgb(98.431373%,51.372549%,18.039216%);stop-opacity:1;"/>
<stop offset="0.19" style="stop-color:rgb(98.039216%,45.098039%,12.941176%);stop-opacity:1;"/>
<stop offset="0.23" style="stop-color:rgb(96.470588%,41.176471%,18.431373%);stop-opacity:1;"/>
<stop offset="0.37" style="stop-color:rgb(90.980392%,29.019608%,35.294118%);stop-opacity:1;"/>
<stop offset="0.48" style="stop-color:rgb(87.843137%,21.176471%,45.882353%);stop-opacity:1;"/>
<stop offset="0.55" style="stop-color:rgb(86.666667%,18.431373%,49.803922%);stop-opacity:1;"/>
<stop offset="0.68" style="stop-color:rgb(70.588235%,23.921569%,59.215686%);stop-opacity:1;"/>
<stop offset="0.97" style="stop-color:rgb(30.196078%,37.647059%,83.137255%);stop-opacity:1;"/>
<stop offset="1" style="stop-color:rgb(25.882353%,39.215686%,85.882353%);stop-opacity:1;"/>
</linearGradient>
</defs>
<g id="surface1">
<path style=" stroke:none;fill-rule:nonzero;fill:url(#linear0);" d="M 38.292969 6.875 L 111.707031 6.875 C 129.058594 6.875 143.125 20.941406 143.125 38.292969 L 143.125 111.707031 C 143.125 129.058594 129.058594 143.125 111.707031 143.125 L 38.292969 143.125 C 20.941406 143.125 6.875 129.058594 6.875 111.707031 L 6.875 38.292969 C 6.875 20.941406 20.941406 6.875 38.292969 6.875 Z M 38.292969 6.875 "/>
<path style=" stroke:none;fill-rule:nonzero;fill:rgb(100%,100%,100%);fill-opacity:1;" d="M 96.972656 33.757812 C 107.738281 33.800781 116.457031 42.515625 116.5 53.28125 L 116.5 96.71875 C 116.457031 107.484375 107.738281 116.199219 96.972656 116.242188 L 53.027344 116.242188 C 42.261719 116.199219 33.542969 107.484375 33.5 96.71875 L 33.5 53.28125 C 33.542969 42.515625 42.261719 33.800781 53.027344 33.757812 Z M 96.972656 24.671875 L 53.027344 24.671875 C 37.292969 24.671875 24.414062 37.5625 24.414062 53.285156 L 24.414062 96.71875 C 24.414062 112.453125 37.304688 125.328125 53.027344 125.328125 L 96.972656 125.328125 C 112.707031 125.328125 125.582031 112.4375 125.582031 96.71875 L 125.582031 53.28125 C 125.582031 37.546875 112.707031 24.671875 96.972656 24.671875 Z M 96.972656 24.671875 "/>
<path style=" stroke:none;fill-rule:nonzero;fill:rgb(100%,100%,100%);fill-opacity:1;" d="M 75 58.046875 C 84.363281 58.046875 91.953125 65.636719 91.953125 75 C 91.953125 84.363281 84.363281 91.953125 75 91.953125 C 65.636719 91.953125 58.046875 84.363281 58.046875 75 C 58.058594 65.640625 65.640625 58.058594 75 58.046875 M 75 48.964844 C 60.621094 48.964844 48.964844 60.621094 48.964844 75 C 48.964844 89.378906 60.621094 101.035156 75 101.035156 C 89.378906 101.035156 101.035156 89.378906 101.035156 75 C 101.035156 60.621094 89.378906 48.964844 75 48.964844 "/>
<path style=" stroke:none;fill-rule:nonzero;fill:rgb(100%,100%,100%);fill-opacity:1;" d="M 107.777344 47.820312 C 107.777344 44.414062 105.011719 41.648438 101.605469 41.648438 C 98.195312 41.648438 95.429688 44.414062 95.429688 47.820312 C 95.429688 51.230469 98.195312 53.992188 101.605469 53.992188 C 105.011719 53.992188 107.777344 51.230469 107.777344 47.820312 Z M 107.777344 47.820312 "/>
</g>
</svg>
