<?xml version="1.0" encoding="UTF-8"?>
<svg xmlns="http://www.w3.org/2000/svg" xmlns:xlink="http://www.w3.org/1999/xlink" width="150px" height="150px" viewBox="0 0 150 150" version="1.1">
<g id="surface1">
<path style=" stroke:none;fill-rule:nonzero;fill:rgb(11.372549%,63.137257%,94.901961%);fill-opacity:1;" d="M 75 0 C 116.414062 0 150 33.585938 150 75 C 150 116.414062 116.414062 150 75 150 C 33.585938 150 0 116.414062 0 75 C 0 33.585938 33.585938 0 75 0 "/>
<path style=" stroke:none;fill-rule:nonzero;fill:rgb(100%,100%,100%);fill-opacity:1;" d="M 57.601562 113.101562 C 92.96875 113.101562 112.335938 83.789062 112.335938 58.363281 C 112.335938 57.539062 112.335938 56.699219 112.273438 55.875 C 116.039062 53.144531 119.296875 49.785156 121.875 45.914062 C 118.363281 47.476562 114.644531 48.496094 110.835938 48.945312 C 114.855469 46.546875 117.855469 42.765625 119.296875 38.308594 C 115.515625 40.546875 111.390625 42.136719 107.085938 42.976562 C 99.796875 35.234375 87.613281 34.859375 79.875 42.136719 C 74.878906 46.828125 72.765625 53.835938 74.308594 60.511719 C 58.84375 59.730469 44.429688 52.425781 34.664062 40.410156 C 29.566406 49.199219 32.160156 60.433594 40.621094 66.089844 C 37.558594 66 34.558594 65.175781 31.890625 63.691406 L 31.890625 63.929688 C 31.890625 73.078125 38.339844 80.96875 47.324219 82.785156 C 44.488281 83.550781 41.519531 83.671875 38.640625 83.113281 C 41.160156 90.945312 48.375 96.316406 56.609375 96.480469 C 49.800781 101.835938 41.386719 104.746094 32.730469 104.730469 C 31.199219 104.730469 29.671875 104.640625 28.15625 104.445312 C 36.914062 110.101562 47.160156 113.101562 57.601562 113.085938 "/>
</g>
</svg>
